<svg width="99" height="42" viewBox="0 0 99 42" fill="none" xmlns="http://www.w3.org/2000/svg">
<path d="M0.499826 42H9.40918L9.40918 0.00180817H0.499826L0.499826 42Z" fill="#03A688"/>
<path d="M39.4775 0C24.7158 0 12.75 9.40213 12.75 20.9995C12.75 32.597 24.7158 41.9986 39.4775 41.9986V34.9992C29.6521 34.9992 21.6565 28.7191 21.6565 20.9995C21.6565 13.28 29.6521 7.0003 39.4775 7.0003V0Z" fill="#03A688"/>
<path d="M98.5008 41.9985V34.9991C97.6733 35.001 96.8535 34.8738 96.089 34.625C95.3245 34.3762 94.6304 34.0108 94.047 33.5498L74.9231 18.5247L68.624 23.4741L87.7473 38.4983C89.1561 39.6114 90.8319 40.4939 92.6778 41.0947C94.5236 41.6955 96.5028 42.0027 98.5008 41.9985Z" fill="#03A688"/>
<path d="M98.5008 6.9999V4.81729e-05C96.5028 -0.0044245 94.5236 0.302598 92.6777 0.903334C90.8318 1.50407 89.156 2.38658 87.7473 3.49975L68.624 18.5244L74.9231 23.4739L94.0464 8.44924C94.6299 7.98816 95.3241 7.62263 96.0887 7.37385C96.8533 7.12506 97.6732 6.99796 98.5008 6.9999Z" fill="#03A688"/>
<path d="M45.0449 34.2983C52.1511 32.4568 57.2949 27.1911 57.2949 20.9989C57.2949 14.8066 52.1511 9.54093 45.0449 7.69936V0.456299C57.1335 2.46907 66.2014 10.9019 66.2014 20.9989C66.2014 31.0958 57.1306 39.5291 45.0449 41.5419V34.2983Z" fill="#03A688"/>
<path d="M41.704 0.072014V7.11081C40.9652 7.038 40.2212 7.00155 39.4766 7.00166V0C40.2267 0 40.9692 0.0240047 41.704 0.072014Z" fill="#03A688"/>
<path d="M41.704 41.9269C40.9696 41.9743 40.2271 41.9983 39.4766 41.9989V34.999C40.2212 34.9992 40.9652 34.9627 41.704 34.8899V41.9269Z" fill="#03A688"/>
<path d="M55.8004 3.49974L74.923 18.5244L68.6239 23.4739L69.4587 22.8185C69.5175 22.2179 69.5469 21.6115 69.5469 20.9991C69.5469 20.3868 69.5175 19.7803 69.4587 19.1798L65.4539 16.0333C65.9539 17.6592 66.2055 19.3261 66.2033 20.9987C66.2033 21.1883 66.2001 21.3775 66.1935 21.5662L49.5007 8.44923C48.9172 7.9882 48.2231 7.62271 47.4586 7.37393C46.6941 7.12515 45.8744 6.99801 45.0469 6.99989V4.34614e-05C47.0448 -0.00420404 49.0239 0.302922 50.8698 0.903644C52.7156 1.50437 54.3915 2.38676 55.8004 3.49974Z" fill="#03A688"/>
<path d="M49.4993 33.5485L65.965 18.1737C65.9714 18.3621 65.1274 15.3769 65.1274 15.5667C65.1274 17.2774 66.696 13.904 66.2049 15.496L68.626 17.6225C68.6837 17.0224 69.5662 19.3436 69.5662 18.7335C69.5662 18.1234 69.519 19.7802 69.4602 19.1801L74.9257 23.4737L55.799 38.4979C54.39 39.611 52.7141 40.4934 50.8681 41.0941C49.0222 41.6949 47.0429 42.002 45.0449 41.9976V34.9982C45.8726 35.0001 46.6924 34.873 47.457 34.6241C48.2217 34.3752 48.9158 34.0096 49.4993 33.5485Z" fill="#03A688"/>
</svg>
