<svg width="14" height="14" viewBox="0 0 14 14" fill="none" xmlns="http://www.w3.org/2000/svg">
<path d="M4.8261 12.2582C4.82822 12.3005 4.84136 12.3414 4.86422 12.377C4.88708 12.4125 4.91886 12.4415 4.9564 12.4609L7.85202 13.9715C7.88649 13.9888 7.92447 13.9978 7.96302 13.998C8.30248 13.9855 8.18452 13.5632 8.20432 13.3465C9.99182 13.0239 11.5853 12.0225 12.6512 10.5518C13.7171 9.08105 14.1729 7.25506 13.9231 5.45594C13.915 5.39838 13.8863 5.34569 13.8425 5.30757C13.7986 5.26946 13.7424 5.24847 13.6843 5.24847C13.6261 5.24848 13.5699 5.26947 13.5261 5.30759C13.4822 5.34572 13.4535 5.39841 13.4454 5.45597C13.401 5.77046 13.3325 6.08106 13.2403 6.38499C12.8986 7.53125 12.2479 8.56133 11.3596 9.36236C10.4713 10.1634 9.37969 10.7045 8.20432 10.9263V10.3158C8.20425 10.2723 8.1924 10.2296 8.17001 10.1923C8.14762 10.1549 8.11554 10.1244 8.07718 10.1038C8.03882 10.0833 7.9956 10.0735 7.95213 10.0756C7.90866 10.0776 7.86656 10.0914 7.8303 10.1155L4.93469 12.0459C4.89935 12.0685 4.87066 12.1 4.85157 12.1373C4.83249 12.1747 4.82369 12.2164 4.8261 12.2582ZM5.79129 0.654067C5.80764 0.451634 5.72774 0.131744 5.90713 0.0363366C5.94265 0.0150533 5.98303 0.00321407 6.02443 0.00194505C6.06582 0.00067604 6.10685 0.0100195 6.14361 0.0290866L9.03921 1.53964C9.07629 1.55917 9.10765 1.58799 9.13023 1.62328C9.15282 1.65858 9.16584 1.69914 9.16803 1.74098C9.17022 1.78282 9.1615 1.82452 9.14273 1.86198C9.12396 1.89944 9.09577 1.93138 9.06094 1.95467L6.16532 3.88507C6.129 3.90882 6.08696 3.92236 6.0436 3.92427C6.00024 3.92617 5.95718 3.91636 5.91892 3.89588C5.88066 3.87539 5.84862 3.84499 5.82617 3.80785C5.80371 3.77071 5.79167 3.72821 5.7913 3.68482V3.07432C4.61593 3.29614 3.5243 3.8372 2.63601 4.63823C1.74773 5.43926 1.09707 6.46935 0.755344 7.61561C0.66317 7.91954 0.5946 8.23013 0.550244 8.54461C0.542116 8.60219 0.513471 8.65489 0.469577 8.69302C0.425683 8.73115 0.369495 8.75215 0.311351 8.75215C0.253206 8.75215 0.197019 8.73115 0.153125 8.69302C0.109231 8.65489 0.0805855 8.60219 0.0724573 8.54461C0.0240946 8.21382 -9.91821e-05 7.87995 6.96182e-05 7.54564C0.0065136 5.90085 0.589573 4.3104 1.64775 3.05117C2.70592 1.79194 4.17218 0.943684 5.79129 0.654067Z" fill="black"/>
</svg>
