<svg width="18" height="19" viewBox="0 0 18 19" fill="none" xmlns="http://www.w3.org/2000/svg">
<g clip-path="url(#clip0_340_1198)">
<path d="M15.3667 15.8667C18.8826 12.3507 18.8826 6.65024 15.3667 3.13429C11.8507 -0.381665 6.15022 -0.381666 2.63427 3.13429C-0.881689 6.65024 -0.881689 12.3507 2.63427 15.8667C6.15022 19.3826 11.8507 19.3826 15.3667 15.8667Z" fill="#767676"/>
<path fill-rule="evenodd" clip-rule="evenodd" d="M11.7415 13.5142L5.37715 7.14984C5.02663 6.79939 5.02663 6.22762 5.37715 5.8771C5.72767 5.52658 6.29951 5.52651 6.64996 5.87703L13.0143 12.2414C13.3648 12.5918 13.3648 13.1636 13.0143 13.5141C12.6638 13.8647 12.092 13.8647 11.7415 13.5142Z" fill="white"/>
<path fill-rule="evenodd" clip-rule="evenodd" d="M5.37715 12.2414L11.7415 5.87703C12.092 5.52651 12.6637 5.52651 13.0143 5.87703C13.3648 6.22755 13.3648 6.79939 13.0143 7.14984L6.64996 13.5142C6.29951 13.8647 5.72774 13.8647 5.37722 13.5142C5.0267 13.1637 5.02663 12.5918 5.37715 12.2414Z" fill="white"/>
</g>
<defs>
<clipPath id="clip0_340_1198">
<rect width="18" height="18" fill="white" transform="translate(0 0.5)"/>
</clipPath>
</defs>
</svg>
