<svg width="18" height="18" viewBox="0 0 18 18" fill="none" xmlns="http://www.w3.org/2000/svg">
<g clip-path="url(#clip0_475_77)">
<path d="M15.3667 15.3667C18.8826 11.8507 18.8826 6.15024 15.3667 2.63429C11.8507 -0.881665 6.15022 -0.881666 2.63427 2.63429C-0.881689 6.15024 -0.881689 11.8507 2.63427 15.3667C6.15022 18.8826 11.8507 18.8826 15.3667 15.3667Z" fill="#767676"/>
<path fill-rule="evenodd" clip-rule="evenodd" d="M11.7415 13.0142L5.37715 6.64984C5.02663 6.29939 5.02663 5.72762 5.37715 5.3771C5.72767 5.02658 6.29951 5.02651 6.64996 5.37703L13.0143 11.7414C13.3648 12.0918 13.3648 12.6636 13.0143 13.0141C12.6638 13.3647 12.092 13.3647 11.7415 13.0142Z" fill="white"/>
<path fill-rule="evenodd" clip-rule="evenodd" d="M5.37715 11.7414L11.7415 5.37703C12.092 5.02651 12.6637 5.02651 13.0143 5.37703C13.3648 5.72755 13.3648 6.29939 13.0143 6.64984L6.64996 13.0142C6.29951 13.3647 5.72774 13.3647 5.37722 13.0142C5.0267 12.6637 5.02663 12.0918 5.37715 11.7414Z" fill="white"/>
</g>
<defs>
<clipPath id="clip0_475_77">
<rect width="18" height="18" fill="white"/>
</clipPath>
</defs>
</svg>
