<svg width="12" height="16" viewBox="0 0 12 16" fill="none" xmlns="http://www.w3.org/2000/svg">
<path d="M0.846191 5.11536V10.3461C0.923119 11.3461 1.00004 12.6538 1.07697 13.5769C1.15389 14.6538 2.07696 15.5 3.15389 15.5H8.84616C9.92309 15.5 10.8462 14.6538 10.9231 13.5769C11 12.6538 11.077 11.3461 11.1539 10.3461C11.2308 9.19224 11.1539 6.80762 11.1539 5.11536H0.846191Z" fill="#1A73E8"/>
<path d="M11.3846 2.80769H9.46155L8.84618 1.65385C8.46157 0.961542 7.76925 0.5 6.99997 0.5H5.15385C4.38461 0.5 3.61538 0.961542 3.3077 1.65385L2.53847 2.80769H0.615382C0.307695 2.80769 0 3.11539 0 3.42308C0 3.73077 0.307695 4.03846 0.615382 4.03846H11.3846C11.6923 4.03846 12 3.80769 12 3.42308C12 3.03847 11.6923 2.80769 11.3846 2.80769ZM3.84616 2.80769L4.23077 2.19231C4.38461 1.88461 4.6923 1.65385 5.0769 1.65385H6.9231C7.3077 1.65385 7.61535 1.80769 7.76925 2.19231L8.15385 2.80769H3.84616Z" fill="#1A73E8"/>
</svg>
