<svg width="75" height="76" viewBox="0 0 75 76" fill="none" xmlns="http://www.w3.org/2000/svg">
<g clip-path="url(#clip0_172_3169)">
<path d="M64.6596 21.0422V70.6684C64.6596 73.3372 62.4949 75.4999 59.8281 75.4999H15.1713C12.5025 75.4999 10.3398 73.3372 10.3398 70.6684V5.33149C10.3397 2.6627 12.5024 0.5 15.1713 0.5H44.1174L64.6596 21.0422Z" fill="#28B446"/>
<path d="M46.9199 20.5959L64.6595 27.9041V21.0422L54.6017 18.0725L46.9199 20.5959Z" fill="#219B38"/>
<path d="M64.6604 21.0422H48.9497C46.2807 21.0422 44.1182 18.8795 44.1182 16.2107V0.5L64.6604 21.0422Z" fill="#6ACE7C"/>
<path d="M49.3821 37.8456H25.6166C24.7641 37.8456 24.0732 38.5365 24.0732 39.3889V60.068C24.0732 60.9202 24.7641 61.6114 25.6166 61.6114H49.3821C50.2346 61.6114 50.9254 60.9204 50.9254 60.068V39.3889C50.9254 38.5367 50.2346 37.8456 49.3821 37.8456ZM27.16 47.7678H35.9561V51.6897H27.16V47.7678ZM39.0426 47.7678H47.8387V51.6897H39.0426V47.7678ZM47.8389 44.6813H39.0428V40.9323H47.8389V44.6813ZM35.9561 40.9323V44.6811H27.16V40.9323H35.9561ZM27.16 54.7762H35.9561V58.5251H27.16V54.7762ZM39.0426 58.5249V54.7761H47.8387V58.5249H39.0426Z" fill="white"/>
</g>
<defs>
<clipPath id="clip0_172_3169">
<rect width="75" height="75" fill="white" transform="translate(0 0.5)"/>
</clipPath>
</defs>
</svg>
