<svg width="16" height="16" viewBox="0 0 16 16" fill="none" xmlns="http://www.w3.org/2000/svg">
<path d="M13.7943 4.38234V14.9693C13.7943 15.5386 13.3325 16 12.7636 16H3.23677C2.66743 16 2.20605 15.5386 2.20605 14.9693V1.03072C2.20602 0.461375 2.6674 0 3.23677 0H9.41193L13.7943 4.38234Z" fill="#28B446"/>
<path d="M10.0098 4.28709L13.7942 5.84619V4.38231L11.6485 3.74878L10.0098 4.28709Z" fill="#219B38"/>
<path d="M13.794 4.38234H10.4423C9.87296 4.38234 9.41162 3.92097 9.41162 3.35162V0L13.794 4.38234Z" fill="#6ACE7C"/>
<path d="M10.535 7.96704H5.46499C5.28312 7.96704 5.13574 8.11445 5.13574 8.29629V12.7078C5.13574 12.8896 5.28312 13.0371 5.46499 13.0371H10.535C10.7168 13.0371 10.8642 12.8897 10.8642 12.7078V8.29629C10.8642 8.11448 10.7168 7.96704 10.535 7.96704ZM5.79424 10.0838H7.67074V10.9204H5.79424V10.0838ZM8.32921 10.0838H10.2057V10.9204H8.32921V10.0838ZM10.2057 9.42532H8.32924V8.62554H10.2057V9.42532ZM7.67074 8.62554V9.42529H5.79424V8.62554H7.67074ZM5.79424 11.5789H7.67074V12.3787H5.79424V11.5789ZM8.32921 12.3786V11.5789H10.2057V12.3786H8.32921Z" fill="white"/>
</svg>
