<svg width="75" height="74" viewBox="0 0 75 74" fill="none" xmlns="http://www.w3.org/2000/svg">
<path fill-rule="evenodd" clip-rule="evenodd" d="M74.5 37.8411C74.5 35.2175 74.2598 32.6948 73.8136 30.273H38.2551V44.5852H58.5742C57.699 49.2102 55.039 53.1289 51.0403 55.7525V65.0362H63.2421C70.3813 58.5948 74.5 49.1093 74.5 37.8411Z" fill="#4285F4"/>
<path fill-rule="evenodd" clip-rule="evenodd" d="M38.2551 74C48.449 74 56.9954 70.6871 63.2421 65.0362L51.0403 55.7525C47.6595 57.9725 43.3349 59.2841 38.2551 59.2841C28.4217 59.2841 20.0984 52.7754 17.1294 44.03H4.51579V53.6164C10.7282 65.7086 23.4963 74 38.2551 74Z" fill="#34A853"/>
<path fill-rule="evenodd" clip-rule="evenodd" d="M17.1294 44.03C16.3743 41.81 15.9453 39.4388 15.9453 37.0002C15.9453 34.5616 16.3743 32.1902 17.1294 29.9702V20.3838H4.51577C1.95872 25.3788 0.5 31.0298 0.5 37.0002C0.5 42.9707 1.95874 48.6214 4.51579 53.6164L17.1294 44.03Z" fill="#FBBC05"/>
<path fill-rule="evenodd" clip-rule="evenodd" d="M38.2551 14.7159C43.7983 14.7159 48.7751 16.5827 52.6879 20.2491L63.5168 9.63682C56.9783 3.66637 48.4319 0 38.2551 0C23.4963 0 10.7282 8.29156 4.51577 20.3838L17.1294 29.9702C20.0983 21.2247 28.4217 14.7159 38.2551 14.7159Z" fill="#EA4335"/>
</svg>
