<svg width="19" height="18" viewBox="0 0 19 18" fill="none" xmlns="http://www.w3.org/2000/svg">
<g clip-path="url(#clip0_113_1182)">
<path d="M9.75 0C4.7872 0 0.75 4.0372 0.75 9C0.75 13.9628 4.7872 18 9.75 18C14.7128 18 18.75 13.9628 18.75 9C18.75 4.0372 14.7128 0 9.75 0Z" fill="#1A73E8"/>
<path d="M13.6875 9.74991H10.4999V12.9375C10.4999 13.3515 10.164 13.6874 9.74995 13.6874C9.33591 13.6874 9 13.3515 9 12.9375V9.74991H5.81245C5.39841 9.74991 5.0625 9.414 5.0625 8.99995C5.0625 8.58591 5.39841 8.25 5.81245 8.25H9V5.06245C9 4.64841 9.33591 4.3125 9.74995 4.3125C10.164 4.3125 10.4999 4.64841 10.4999 5.06245V8.25H13.6875C14.1015 8.25 14.4374 8.58591 14.4374 8.99995C14.4374 9.414 14.1015 9.74991 13.6875 9.74991Z" fill="#FAFAFA"/>
</g>
<defs>
<clipPath id="clip0_113_1182">
<rect width="18" height="18" fill="white" transform="translate(0.75)"/>
</clipPath>
</defs>
</svg>
