<svg width="14" height="14" viewBox="0 0 14 14" fill="none" xmlns="http://www.w3.org/2000/svg">
<path d="M13 1H12V0.5C12 0.367392 11.9473 0.240215 11.8536 0.146447C11.7598 0.0526784 11.6326 0 11.5 0C11.3674 0 11.2402 0.0526784 11.1464 0.146447C11.0527 0.240215 11 0.367392 11 0.5V1H9V0.5C9 0.367392 8.94732 0.240215 8.85355 0.146447C8.75979 0.0526784 8.63261 0 8.5 0C8.36739 0 8.24021 0.0526784 8.14645 0.146447C8.05268 0.240215 8 0.367392 8 0.5V1H6V0.5C6 0.367392 5.94732 0.240215 5.85355 0.146447C5.75979 0.0526784 5.63261 0 5.5 0C5.36739 0 5.24021 0.0526784 5.14645 0.146447C5.05268 0.240215 5 0.367392 5 0.5V1H3V0.5C3 0.367392 2.94732 0.240215 2.85355 0.146447C2.75979 0.0526784 2.63261 0 2.5 0C2.36739 0 2.24021 0.0526784 2.14645 0.146447C2.05268 0.240215 2 0.367392 2 0.5V1H1C0.734784 1 0.48043 1.10536 0.292893 1.29289C0.105357 1.48043 0 1.73478 0 2V4H14V2C14 1.73478 13.8946 1.48043 13.7071 1.29289C13.5196 1.10536 13.2652 1 13 1Z" fill="black"/>
<path d="M0 13C0 13.2652 0.105357 13.5196 0.292893 13.7071C0.48043 13.8946 0.734784 14 1 14H13C13.2652 14 13.5196 13.8946 13.7071 13.7071C13.8946 13.5196 14 13.2652 14 13V5H0V13ZM3.145 9.145C3.19148 9.09814 3.24678 9.06094 3.30771 9.03555C3.36864 9.01017 3.43399 8.9971 3.5 8.9971C3.56601 8.9971 3.63136 9.01017 3.69229 9.03555C3.75322 9.06094 3.80852 9.09814 3.855 9.145L4.01 9.305C4.05269 8.65747 4.3042 8.04124 4.72679 7.54877C5.14938 7.05629 5.72026 6.71411 6.35379 6.57357C6.98733 6.43303 7.64935 6.50171 8.24055 6.7693C8.83174 7.03688 9.32023 7.48895 9.63274 8.05769C9.94524 8.62642 10.0649 9.28115 9.97377 9.92366C9.88264 10.5662 9.58564 11.1618 9.12731 11.6212C8.66899 12.0806 8.07405 12.379 7.43177 12.4716C6.78948 12.5643 6.13447 12.4462 5.565 12.135C5.50722 12.1022 5.45647 12.0583 5.41565 12.0058C5.37483 11.9534 5.34474 11.8934 5.3271 11.8294C5.30945 11.7653 5.3046 11.6984 5.31282 11.6324C5.32104 11.5665 5.34217 11.5028 5.375 11.445C5.40783 11.3872 5.45172 11.3365 5.50416 11.2956C5.55661 11.2548 5.61658 11.2247 5.68065 11.2071C5.81005 11.1715 5.9483 11.1887 6.065 11.255C6.35076 11.4149 6.67257 11.4992 7 11.5C7.53043 11.5 8.03914 11.2893 8.41421 10.9142C8.78929 10.5391 9 10.0304 9 9.5C9.00262 9.1658 8.91818 8.83667 8.755 8.545C8.54952 8.17739 8.23324 7.88402 7.85124 7.70671C7.46924 7.5294 7.04102 7.47721 6.62761 7.55756C6.21421 7.63791 5.83671 7.84672 5.54894 8.15421C5.26118 8.4617 5.07782 8.85218 5.025 9.27L5.145 9.145C5.19162 9.09838 5.24696 9.0614 5.30788 9.03617C5.36879 9.01094 5.43407 8.99795 5.5 8.99795C5.56593 8.99795 5.63121 9.01094 5.69212 9.03617C5.75304 9.0614 5.80838 9.09838 5.855 9.145C5.90162 9.19162 5.9386 9.24696 5.96383 9.30788C5.98906 9.36879 6.00205 9.43407 6.00205 9.5C6.00205 9.56593 5.98906 9.63121 5.96383 9.69212C5.9386 9.75304 5.90162 9.80838 5.855 9.855L4.855 10.855C4.80852 10.9019 4.75322 10.9391 4.69229 10.9644C4.63136 10.9898 4.56601 11.0029 4.5 11.0029C4.43399 11.0029 4.36864 10.9898 4.30771 10.9644C4.24678 10.9391 4.19148 10.9019 4.145 10.855L3.145 9.855C3.09814 9.80852 3.06094 9.75322 3.03555 9.69229C3.01017 9.63136 2.9971 9.56601 2.9971 9.5C2.9971 9.43399 3.01017 9.36864 3.03555 9.30771C3.06094 9.24678 3.09814 9.19148 3.145 9.145Z" fill="black"/>
</svg>
