<svg width="16" height="16" viewBox="0 0 16 16" fill="none" xmlns="http://www.w3.org/2000/svg">
<path d="M12.6667 2.06663V1.33329C12.6667 1.15648 12.5965 0.986912 12.4715 0.861888C12.3465 0.736864 12.1769 0.666626 12.0001 0.666626C11.8233 0.666626 11.6537 0.736864 11.5287 0.861888C11.4037 0.986912 11.3334 1.15648 11.3334 1.33329V1.99996H8.66675V1.33329C8.66675 1.15648 8.59651 0.986912 8.47149 0.861888C8.34646 0.736864 8.17689 0.666626 8.00008 0.666626C7.82327 0.666626 7.6537 0.736864 7.52868 0.861888C7.40365 0.986912 7.33342 1.15648 7.33342 1.33329V1.99996H4.66675V1.33329C4.66675 1.15648 4.59651 0.986912 4.47149 0.861888C4.34646 0.736864 4.17689 0.666626 4.00008 0.666626C3.82327 0.666626 3.6537 0.736864 3.52868 0.861888C3.40365 0.986912 3.33341 1.15648 3.33341 1.33329V2.06663C2.58051 2.22031 1.90382 2.62941 1.41788 3.22469C0.931937 3.81997 0.666591 4.56486 0.666748 5.33329V12C0.666748 12.4377 0.752967 12.8712 0.920483 13.2756C1.088 13.68 1.33353 14.0475 1.64306 14.357C2.26818 14.9821 3.11603 15.3333 4.00008 15.3333H12.0001C12.4378 15.3333 12.8713 15.2471 13.2757 15.0796C13.6801 14.912 14.0476 14.6665 14.3571 14.357C14.6666 14.0475 14.9122 13.68 15.0797 13.2756C15.2472 12.8712 15.3334 12.4377 15.3334 12V5.33329C15.3336 4.56486 15.0682 3.81997 14.5823 3.22469C14.0963 2.62941 13.4197 2.22031 12.6667 2.06663ZM14.0001 12C14.0001 12.5304 13.7894 13.0391 13.4143 13.4142C13.0392 13.7892 12.5305 14 12.0001 14H4.00008C3.46965 14 2.96094 13.7892 2.58587 13.4142C2.2108 13.0391 2.00008 12.5304 2.00008 12V5.33329C2.00124 4.92066 2.13 4.51849 2.36871 4.18192C2.60741 3.84534 2.94438 3.59083 3.33341 3.45329V3.99996C3.33341 4.17677 3.40365 4.34634 3.52868 4.47136C3.6537 4.59639 3.82327 4.66663 4.00008 4.66663C4.17689 4.66663 4.34646 4.59639 4.47149 4.47136C4.59651 4.34634 4.66675 4.17677 4.66675 3.99996V3.33329H7.33342V3.99996C7.33342 4.17677 7.40365 4.34634 7.52868 4.47136C7.6537 4.59639 7.82327 4.66663 8.00008 4.66663C8.17689 4.66663 8.34646 4.59639 8.47149 4.47136C8.59651 4.34634 8.66675 4.17677 8.66675 3.99996V3.33329H11.3334V3.99996C11.3334 4.17677 11.4037 4.34634 11.5287 4.47136C11.6537 4.59639 11.8233 4.66663 12.0001 4.66663C12.1769 4.66663 12.3465 4.59639 12.4715 4.47136C12.5965 4.34634 12.6667 4.17677 12.6667 3.99996V3.45329C13.0558 3.59083 13.3927 3.84534 13.6315 4.18192C13.8702 4.51849 13.9989 4.92066 14.0001 5.33329V12ZM10.5534 7.61329C10.6776 7.7382 10.7473 7.90717 10.7473 8.08329C10.7473 8.25942 10.6776 8.42838 10.5534 8.55329L8.08675 10.98C7.96213 11.1021 7.79458 11.1705 7.62008 11.1705C7.44558 11.1705 7.27803 11.1021 7.15341 10.98L5.82008 9.68663C5.69366 9.56286 5.62159 9.39394 5.61971 9.21703C5.61784 9.04012 5.68631 8.86971 5.81008 8.74329C5.93385 8.61687 6.10277 8.5448 6.27968 8.54292C6.45659 8.54105 6.627 8.60953 6.75342 8.73329L7.60008 9.57329L9.60008 7.60663C9.66261 7.54356 9.73711 7.49363 9.81921 7.45975C9.90131 7.42588 9.98934 7.40875 10.0782 7.40937C10.167 7.40999 10.2547 7.42835 10.3364 7.46337C10.418 7.49839 10.4918 7.54936 10.5534 7.61329Z" fill="black"/>
</svg>
