<svg width="42" height="42" viewBox="0 0 42 42" fill="none" xmlns="http://www.w3.org/2000/svg">
<rect width="42" height="42" rx="21" fill="black"/>
<g clip-path="url(#clip0_325_782)">
<path d="M9.99994 27H12L12 15.0005H9.99994L9.99994 27Z" fill="#03A688"/>
<path d="M18.75 15C15.4362 15 12.75 17.6863 12.75 20.9999C12.75 24.3134 15.4362 26.9996 18.75 26.9996V24.9998C16.5444 24.9998 14.7494 23.2055 14.7494 20.9999C14.7494 18.7943 16.5444 17.0001 18.75 17.0001V15Z" fill="#03A688"/>
<path d="M32 26.9994V24.9996C31.8142 25.0001 31.6302 24.9638 31.4586 24.8927C31.287 24.8216 31.1311 24.7172 31.0002 24.5855L26.7071 20.2926L25.293 21.7067L29.5859 25.9994C29.9022 26.3174 30.2784 26.5695 30.6928 26.7412C31.1072 26.9128 31.5515 27.0006 32 26.9994Z" fill="#03A688"/>
<path d="M32 17V15C31.5515 14.9987 31.1072 15.0865 30.6928 15.2581C30.2784 15.4297 29.9022 15.6819 29.5859 15.9999L25.293 20.2927L26.7071 21.7068L31 17.4141C31.131 17.2823 31.2869 17.1779 31.4585 17.1068C31.6302 17.0357 31.8142 16.9994 32 17Z" fill="#03A688"/>
<path d="M20 24.7995C21.5953 24.2734 22.75 22.7689 22.75 20.9997C22.75 19.2304 21.5953 17.726 20 17.1998V15.1304C22.7138 15.7054 24.7494 18.1148 24.7494 20.9997C24.7494 23.8845 22.7131 26.294 20 26.8691V24.7995Z" fill="#03A688"/>
<path d="M19.25 15.0206V17.0317C19.0842 17.0109 18.9172 17.0004 18.75 17.0005V15C18.9184 15 19.0851 15.0069 19.25 15.0206Z" fill="#03A688"/>
<path d="M19.25 26.9791C19.0852 26.9926 18.9185 26.9995 18.75 26.9996V24.9997C18.9172 24.9997 19.0842 24.9893 19.25 24.9685V26.9791Z" fill="#03A688"/>
<path d="M22.4143 15.9999L26.7071 20.2927L25.2931 21.7068L25.4804 21.5196C25.4936 21.348 25.5002 21.1747 25.5002 20.9998C25.5002 20.8248 25.4936 20.6515 25.4804 20.4799L24.5814 19.581C24.6937 20.0455 24.7501 20.5217 24.7497 20.9996C24.7497 21.0538 24.7489 21.1079 24.7475 21.1618L21.0001 17.4141C20.8691 17.2823 20.7133 17.1779 20.5417 17.1068C20.37 17.0358 20.186 16.9994 20.0002 17V15C20.4488 14.9988 20.8931 15.0865 21.3074 15.2582C21.7218 15.4298 22.098 15.6819 22.4143 15.9999Z" fill="#03A688"/>
<path d="M21 24.5852L24.6964 20.1925C24.6978 20.2463 24.5083 19.3934 24.5083 19.4476C24.5083 19.9364 24.8604 18.9725 24.7502 19.4274L25.2937 20.035C25.3067 19.8635 25.5048 20.5267 25.5048 20.3524C25.5048 20.1781 25.4942 20.6515 25.481 20.48L26.7079 21.7068L22.4142 25.9994C22.0979 26.3174 21.7216 26.5695 21.3073 26.7411C20.8929 26.9128 20.4485 27.0005 20 26.9993V24.9995C20.1858 25 20.3698 24.9637 20.5415 24.8926C20.7131 24.8215 20.869 24.717 21 24.5852Z" fill="#03A688"/>
</g>
<defs>
<clipPath id="clip0_325_782">
<rect width="22" height="12" fill="white" transform="translate(10 15)"/>
</clipPath>
</defs>
</svg>
