<svg width="17" height="16" viewBox="0 0 17 16" fill="none" xmlns="http://www.w3.org/2000/svg">
<g clip-path="url(#clip0_113_1159)">
<path d="M8.74984 0.666626C7.29944 0.666626 5.88162 1.09672 4.67566 1.90252C3.4697 2.70831 2.52977 3.85362 1.97472 5.19361C1.41968 6.53361 1.27446 8.00809 1.55742 9.43062C1.84037 10.8531 2.53881 12.1598 3.56439 13.1854C4.58998 14.211 5.89665 14.9094 7.31918 15.1924C8.74171 15.4753 10.2162 15.3301 11.5562 14.7751C12.8962 14.22 14.0415 13.2801 14.8473 12.0741C15.6531 10.8682 16.0832 9.45036 16.0832 7.99996C16.0809 6.05574 15.3075 4.19181 13.9328 2.81704C12.558 1.44227 10.6941 0.66892 8.74984 0.666626ZM8.74984 14C7.56315 14 6.40311 13.6481 5.41642 12.9888C4.42972 12.3295 3.66069 11.3924 3.20656 10.2961C2.75244 9.1997 2.63362 7.9933 2.86513 6.82942C3.09664 5.66553 3.66808 4.59643 4.5072 3.75732C5.34631 2.9182 6.41541 2.34676 7.5793 2.11525C8.74319 1.88374 9.94958 2.00256 11.0459 2.45668C12.1423 2.91081 13.0794 3.67984 13.7387 4.66654C14.3979 5.65323 14.7498 6.81327 14.7498 7.99996C14.7479 9.59066 14.1151 11.1157 12.9903 12.2405C11.8655 13.3653 10.3405 13.998 8.74984 14Z" fill="#1A73E8"/>
<path d="M9.41683 7.72404V4.00004C9.41683 3.82323 9.34659 3.65366 9.22157 3.52864C9.09654 3.40361 8.92697 3.33337 8.75016 3.33337C8.57335 3.33337 8.40378 3.40361 8.27876 3.52864C8.15373 3.65366 8.0835 3.82323 8.0835 4.00004V8.00004C8.08353 8.17684 8.1538 8.34638 8.27883 8.47137L10.2788 10.4714C10.4046 10.5928 10.573 10.66 10.7478 10.6585C10.9226 10.657 11.0898 10.5869 11.2134 10.4633C11.337 10.3396 11.4071 10.1724 11.4086 9.99764C11.4101 9.82284 11.3429 9.65444 11.2215 9.52871L9.41683 7.72404Z" fill="#1A73E8"/>
</g>
<defs>
<clipPath id="clip0_113_1159">
<rect width="16" height="16" fill="white" transform="translate(0.75)"/>
</clipPath>
</defs>
</svg>
